<svg width="1600" height="420" viewBox="0 0 1600 420" fill="none" xmlns="http://www.w3.org/2000/svg">
  <defs>
    <linearGradient id="g" x1="0" y1="0" x2="1" y2="1">
      <stop offset="0%" stop-color="#0F172A"/>
      <stop offset="100%" stop-color="#0B1020"/>
    </linearGradient>
    <linearGradient id="a" x1="0" y1="0" x2="1" y2="0">
      <stop offset="0%" stop-color="#61DAFB"/>
      <stop offset="100%" stop-color="#00C4FF"/>
    </linearGradient>
    <linearGradient id="b" x1="0" y1="0" x2="1" y2="0">
      <stop offset="0%" stop-color="#FFCA28"/>
      <stop offset="100%" stop-color="#FFA000"/>
    </linearGradient>
    <linearGradient id="c" x1="0" y1="0" x2="1" y2="0">
      <stop offset="0%" stop-color="#4CAF50"/>
      <stop offset="100%" stop-color="#2E7D32"/>
    </linearGradient>
    <filter id="blur">
      <feGaussianBlur stdDeviation="60"/>
    </filter>
  </defs>
  <rect width="1600" height="420" fill="url(#g)"/>
  <circle cx="250" cy="120" r="160" fill="url(#a)" opacity="0.18" filter="url(#blur)"/>
  <circle cx="1250" cy="300" r="200" fill="url(#b)" opacity="0.16" filter="url(#blur)"/>
  <circle cx="800" cy="180" r="180" fill="url(#c)" opacity="0.12" filter="url(#blur)"/>

  <g font-family="system-ui, -apple-system, Segoe UI, Roboto, Ubuntu, Cantarell, 'Helvetica Neue', Arial" fill="#E5E7EB">
    <text x="120" y="190" font-size="64" font-weight="700">Tomas Radvansky</text>
    <text x="120" y="240" font-size="28" opacity="0.9">Fractional CTO • Flutter/Firebase Architect • Remote-only</text>
    <text x="120" y="285" font-size="22" opacity="0.8">TDD • CI/CD (GitHub Actions) • GCP • Node.js (TypeScript)</text>
  </g>

  <g font-family="monospace" font-size="18" fill="#0B1020">
    <rect x="1120" y="110" rx="10" ry="10" width="340" height="44" fill="#E5E7EB" opacity="0.95"/>
    <text x="1140" y="140">Flutter • Dart</text>

    <rect x="1120" y="170" rx="10" ry="10" width="340" height="44" fill="#E5E7EB" opacity="0.95"/>
    <text x="1140" y="200">Firebase • Functions</text>

    <rect x="1120" y="230" rx="10" ry="10" width="340" height="44" fill="#E5E7EB" opacity="0.95"/>
    <text x="1140" y="260">GCP • Node.js (TS)</text>

    <rect x="1120" y="290" rx="10" ry="10" width="340" height="44" fill="#E5E7EB" opacity="0.95"/>
    <text x="1140" y="320">TDD • CI/CD</text>
  </g>
</svg>
